# xmcd
#
# Track frame offsets:
#        150
#        22608
#        46917
#        65943
#        85417
#        100809
#        123490
#        150153
#        162987
#        185721
#        200009
#
# Disc length: 3072 seconds
#
# Revision: 0
# Processed by: cddbd v1.5.1PL0 Copyright (c) Steve Scherf et al.
# Submitted via: ExactAudioCopy v0.95a5
#
DISCID=8d0bfe0b
DTITLE=Kelly Simonz's Blind Faith - The Rule Of Right
DYEAR=2002
DGENRE=Metal
TTITLE0=Destiny
TTITLE1=Till The End Of Time
TTITLE2=Still(2002 Version)
TTITLE3=The Rule Of Right
TTITLE4=Desperado
TTITLE5=King Of The Castle(2002 Version)
TTITLE6=Time Of Revelation
TTITLE7=Partita BWV826
TTITLE8=Now Your Turn
TTITLE9=All In One Piece
TTITLE10=Blind Faith(Live)
EXTD=
EXTT0=
EXTT1=
EXTT2=
EXTT3=
EXTT4=
EXTT5=
EXTT6=
EXTT7=
EXTT8=
EXTT9=
EXTT10=
PLAYORDER=
